<svg width="512" height="512" viewBox="0 0 512 512" fill="none" xmlns="http://www.w3.org/2000/svg"><rect width="512" height="512" rx="112" fill="#EDEDED"/><path d="M102.68 166H170.746L182.758 346H114.691L102.68 166Z" fill="black"/><path d="M269.672 166H337.738L349.75 346H281.684L269.672 166Z" fill="black"/><path d="M261.859 166H193.793L181.781 346H249.848L261.859 166Z" fill="black"/><path d="M94.5763 166H25.3442L6 211L32.4711 301L13.1268 346H82.3589L101.703 301L75.232 211L94.5763 166Z" fill="black"/><path d="M345.844 166H414.74L426.898 346H358.002L345.844 166Z" fill="black"/><path d="M506 166H438.764L426.898 346H494.135L506 166Z" fill="black"/></svg>
