<svg width="105" height="26" viewBox="0 0 105 26" fill="none" xmlns="http://www.w3.org/2000/svg">
<path d="M10.0176 6.50781L13.8477 19.5029L11.0479 26H1.03125L3.83008 19.5029L0 6.50781L2.79883 0.00976562H12.8164L10.0176 6.50781ZM27.3057 23.3545L28.8672 0.00976562H38.7158L36.7061 26H17.7363L14.9932 0.00976562H24.8418L27.3057 23.3545ZM49.7256 25.9902L40.1602 26V0.00976562L49.7256 0V25.9902ZM67.3203 5.50781H59.4814V10.0059H66.8184L65.248 15.5039H59.4814V20.502H68.8281L67.4199 26H51.7461V0.00976562H68.8281L67.3203 5.50781ZM82.4238 26H72.5752L69.832 0.00976562H79.6807L82.4238 26ZM93.7939 22.3682L95.2715 0.00976562H105L102.278 26H84.3301L81.5869 0.00976562H91.4355L93.7939 22.3682Z" fill="#333333"/>
</svg>
