<svg width="21" height="13" viewBox="0 0 21 13" fill="none" xmlns="http://www.w3.org/2000/svg">
<rect x="0.5" y="0.5" width="20" height="12" fill="url(#paint0_linear_8780_1060)" stroke="#333333"/>
<g filter="url(#filter0_d_8780_1060)">
<path d="M14.927 10.6934C12.655 10.6934 11.2585 9.11963 11.2585 6.62744V6.6167C11.2585 4.11914 12.6765 2.55615 14.927 2.55615C17.1829 2.55615 18.5901 4.11914 18.5901 6.6167V6.62744C18.5901 8.07764 18.1121 9.22168 17.2688 9.91992L18.3 11.3057H16.9465L16.3181 10.4624C15.8992 10.6128 15.4373 10.6934 14.927 10.6934ZM14.927 9.49561C15.1418 9.49561 15.3459 9.46875 15.5393 9.41504L14.5403 8.07227H15.8938L16.4631 8.84033C16.9197 8.33545 17.1775 7.57275 17.1775 6.62744V6.6167C17.1775 4.86572 16.302 3.75391 14.927 3.75391C13.552 3.75391 12.6711 4.86572 12.6711 6.6167V6.62744C12.6711 8.36768 13.5305 9.49561 14.927 9.49561Z" fill="black"/>
</g>
<g filter="url(#filter1_d_8780_1060)">
<path d="M2.73218 10.5V2.74951H4.11792V5.97217H7.88843V2.74951H9.2688V10.5H7.88843V7.1377H4.11792V10.5H2.73218Z" fill="black"/>
</g>
<defs>
<filter id="filter0_d_8780_1060" x="11.2585" y="2.55615" width="7.33154" height="8.74951" filterUnits="userSpaceOnUse" color-interpolation-filters="sRGB">
<feFlood flood-opacity="0" result="BackgroundImageFix"/>
<feColorMatrix in="SourceAlpha" type="matrix" values="0 0 0 0 0 0 0 0 0 0 0 0 0 0 0 0 0 0 127 0" result="hardAlpha"/>
<feOffset/>
<feComposite in2="hardAlpha" operator="out"/>
<feColorMatrix type="matrix" values="0 0 0 0 0 0 0 0 0 0 0 0 0 0 0 0 0 0 0.25 0"/>
<feBlend mode="normal" in2="BackgroundImageFix" result="effect1_dropShadow_8780_1060"/>
<feBlend mode="normal" in="SourceGraphic" in2="effect1_dropShadow_8780_1060" result="shape"/>
</filter>
<filter id="filter1_d_8780_1060" x="2.73218" y="2.74951" width="6.53662" height="7.75049" filterUnits="userSpaceOnUse" color-interpolation-filters="sRGB">
<feFlood flood-opacity="0" result="BackgroundImageFix"/>
<feColorMatrix in="SourceAlpha" type="matrix" values="0 0 0 0 0 0 0 0 0 0 0 0 0 0 0 0 0 0 127 0" result="hardAlpha"/>
<feOffset/>
<feComposite in2="hardAlpha" operator="out"/>
<feColorMatrix type="matrix" values="0 0 0 0 0 0 0 0 0 0 0 0 0 0 0 0 0 0 0.25 0"/>
<feBlend mode="normal" in2="BackgroundImageFix" result="effect1_dropShadow_8780_1060"/>
<feBlend mode="normal" in="SourceGraphic" in2="effect1_dropShadow_8780_1060" result="shape"/>
</filter>
<linearGradient id="paint0_linear_8780_1060" x1="20.5" y1="6.5" x2="0.5" y2="6.5" gradientUnits="userSpaceOnUse">
<stop stop-color="#EDC466"/>
<stop offset="0.5" stop-color="#FFEFC8"/>
<stop offset="1" stop-color="#EDC466"/>
</linearGradient>
</defs>
</svg>
